<?xml version="1.0" encoding="utf-8"?>
<svg viewBox="0 0 290 70" xmlns="http://www.w3.org/2000/svg">
  <path d="M 87.972 23.654 L 87.972 66.264 L 69.172 66.264 L 69.172 61.894 C 68.679 62.967 67.689 63.964 66.202 64.884 C 64.715 65.804 63.375 66.264 62.182 66.264 L 11.272 66.264 C 9.905 66.264 8.529 65.907 7.142 65.194 C 5.755 64.481 4.625 63.481 3.752 62.194 C 2.879 60.914 2.429 59.474 2.402 57.874 C 2.369 54.781 2.332 50.874 2.292 46.154 C 2.245 41.441 2.222 38.951 2.222 38.684 C 2.222 35.157 3.162 32.384 5.042 30.364 C 6.922 28.337 9.115 27.324 11.622 27.324 L 59.782 27.324 C 61.995 27.324 63.932 27.891 65.592 29.024 C 67.252 30.164 68.445 31.301 69.172 32.434 L 69.172 26.714 C 69.172 25.521 68.815 24.304 68.102 23.064 C 67.389 21.824 66.379 20.797 65.072 19.984 C 63.759 19.164 62.229 18.754 60.482 18.754 L 2.842 18.754 L 2.842 3.594 L 67.822 3.594 C 70.562 3.594 73.155 4.264 75.602 5.604 C 78.049 6.944 80.205 8.684 82.072 10.824 C 83.932 12.964 85.379 15.187 86.412 17.494 C 87.452 19.794 87.972 21.847 87.972 23.654 Z M 65.592 46.774 C 65.592 45.987 65.302 45.264 64.722 44.604 C 64.135 43.951 63.412 43.427 62.552 43.034 C 61.692 42.641 61.002 42.444 60.482 42.444 L 24.952 42.444 C 23.319 42.444 22.182 42.997 21.542 44.104 C 20.902 45.211 20.582 46.071 20.582 46.684 C 20.582 47.964 20.995 48.997 21.822 49.784 C 22.655 50.571 23.495 50.964 24.342 50.964 L 61.482 50.964 C 62.302 50.964 63.192 50.534 64.152 49.674 C 65.112 48.814 65.592 47.847 65.592 46.774 Z M 176.896 15.614 L 176.896 30.294 C 176.896 33.794 176.053 36.751 174.366 39.164 C 172.673 41.584 169.846 42.794 165.886 42.794 L 114.626 42.794 L 114.626 66.264 L 96.616 66.264 L 96.616 27.674 L 155.176 27.674 C 155.963 27.674 156.75 27.221 157.536 26.314 C 158.323 25.414 158.716 24.411 158.716 23.304 C 158.716 22.224 158.39 21.321 157.736 20.594 C 157.083 19.867 156.203 19.327 155.096 18.974 C 153.983 18.627 152.873 18.454 151.766 18.454 L 96.616 18.454 L 96.616 3.594 L 164.186 3.594 C 168.873 3.594 172.163 4.731 174.056 7.004 C 175.95 9.277 176.896 12.147 176.896 15.614 Z M 204.381 3.594 L 204.381 66.174 L 186.381 66.174 L 186.381 3.594 L 204.381 3.594 Z M 287.633 3.504 L 287.633 18.274 L 212.253 18.274 L 212.253 3.504 L 287.633 3.504 Z M 256.473 27.844 L 278.243 27.844 L 244.763 66.264 L 221.953 66.264 L 256.473 27.844 Z" style="fill: rgb(233, 0, 0); white-space: pre;"/>
</svg>